<svg width="31" height="31" viewBox="0 0 31 31" fill="none" xmlns="http://www.w3.org/2000/svg">
<path d="M18.0666 15.0156C18.1143 15.0157 18.161 15.0016 18.2007 14.9752C18.2405 14.9488 18.2715 14.9113 18.29 14.8673C18.3085 14.8234 18.3136 14.7749 18.3047 14.728C18.2957 14.6812 18.2731 14.638 18.2397 14.6039L13.4929 9.77711C13.4591 9.74286 13.416 9.71942 13.3689 9.70978C13.3218 9.70014 13.2729 9.70473 13.2284 9.72298C13.1839 9.74122 13.1459 9.77229 13.1191 9.81223C13.0924 9.85217 13.0781 9.89917 13.0781 9.94725V14.2891C13.0781 14.4818 13.1547 14.6666 13.2909 14.8028C13.4272 14.9391 13.612 15.0156 13.8047 15.0156H18.0666Z" fill="#D2D2D2"/>
<path d="M11.9277 16.166C11.679 15.9207 11.4814 15.6285 11.3463 15.3063C11.2112 14.9841 11.1413 14.6384 11.1406 14.2891V8.71875H6.78125C5.75447 8.72178 4.77061 9.13102 4.04456 9.85706C3.31852 10.5831 2.90928 11.567 2.90625 12.5938V26.1562C2.90625 27.184 3.31451 28.1696 4.04121 28.8963C4.76791 29.623 5.75354 30.0312 6.78125 30.0312H15.5C16.5277 30.0312 17.5133 29.623 18.24 28.8963C18.9667 28.1696 19.375 27.184 19.375 26.1562V16.9531H13.8047C13.4553 16.9526 13.1095 16.8828 12.7873 16.7477C12.4651 16.6126 12.173 16.4149 11.9277 16.166Z" fill="#D2D2D2"/>
<path d="M22.5234 7.26562H26.7853C26.833 7.26567 26.8797 7.25161 26.9195 7.22523C26.9592 7.19885 26.9903 7.16131 27.0088 7.11733C27.0273 7.07335 27.0324 7.02489 27.0234 6.97802C27.0145 6.93116 26.9919 6.88798 26.9585 6.85391L22.2116 2.02711C22.1779 1.99286 22.1347 1.96942 22.0876 1.95978C22.0405 1.95014 21.9916 1.95473 21.9471 1.97298C21.9027 1.99122 21.8646 2.02229 21.8379 2.06223C21.8111 2.10217 21.7968 2.14917 21.7969 2.19725V6.53906C21.7969 6.73176 21.8734 6.91656 22.0097 7.05282C22.1459 7.18908 22.3307 7.26562 22.5234 7.26562Z" fill="#D2D2D2"/>
<path d="M22.5234 9.20312C21.8185 9.19774 21.1441 8.91533 20.6456 8.41689C20.1472 7.91844 19.8648 7.24395 19.8594 6.53906V0.96875H13.3203C12.3572 0.969872 11.4338 1.35297 10.7528 2.03402C10.0717 2.71506 9.68862 3.63843 9.6875 4.60156V6.78125H12.2377C12.5632 6.78255 12.8853 6.84816 13.1854 6.9743C13.4855 7.10044 13.7576 7.28463 13.9863 7.51629L20.5956 14.237C21.0567 14.7048 21.3142 15.336 21.3119 15.9929V24.2188H24.5239C26.4923 24.2188 28.0931 22.5888 28.0931 20.5859V9.20312H22.5234Z" fill="#D2D2D2"/>
</svg>
