<svg width="23" height="20" viewBox="0 0 23 20" fill="none" xmlns="http://www.w3.org/2000/svg">
<path d="M13.854 16.7652L12.883 17.7042C12.6967 17.9182 12.4669 18.0901 12.209 18.2085C11.9512 18.3268 11.671 18.389 11.3873 18.3908C11.1035 18.3926 10.8226 18.334 10.5633 18.2189C10.3039 18.1038 10.072 17.9348 9.883 17.7232L4.375 12.3912C2.875 10.8912 1.375 9.19115 1.375 6.89115C1.37502 5.77835 1.71259 4.69174 2.34313 3.77482C2.97367 2.8579 3.86752 2.15381 4.90661 1.75555C5.9457 1.35729 7.08116 1.2836 8.16301 1.5442C9.24487 1.8048 10.2222 2.38743 10.966 3.21515C11.0184 3.27117 11.0817 3.31582 11.1521 3.34635C11.2224 3.37688 11.2983 3.39264 11.375 3.39264C11.4517 3.39264 11.5276 3.37688 11.5979 3.34635C11.6683 3.31582 11.7316 3.27117 11.784 3.21515C12.5254 2.38205 13.503 1.79452 14.5866 1.53075C15.6702 1.26699 16.8085 1.3395 17.8499 1.73864C18.8913 2.13777 19.7864 2.84461 20.4161 3.76506C21.0458 4.6855 21.3803 5.77591 21.375 6.89115C21.3747 7.39582 21.3009 7.89775 21.156 8.38115" stroke="#0057FF" stroke-width="2.75" stroke-linecap="round" stroke-linejoin="round"/>
<path d="M17.375 9.39062V15.3906" stroke="#0057FF" stroke-width="2.75" stroke-linecap="round" stroke-linejoin="round"/>
<path d="M14.375 12.3906H20.375" stroke="#0057FF" stroke-width="2.75" stroke-linecap="round" stroke-linejoin="round"/>
</svg>
