<svg width="36" height="36" viewBox="0 0 36 36" fill="none" xmlns="http://www.w3.org/2000/svg">
<rect y="26.5957" width="16.2525" height="35.46" transform="rotate(-90 0 26.5957)" fill="white"/>
<path d="M0 10.8359L-3.22288e-07 4.00036C-4.26445e-07 1.79122 1.79086 0.000354694 4 0.000354605L31.8379 0.000353477C34.047 0.000353387 35.8379 1.79121 35.8379 4.00035L35.8379 10.8359L0 10.8359Z" fill="#FF0000"/>
<path d="M4 35.457C1.79086 35.457 -8.44365e-08 33.6662 -1.88594e-07 31.457L-5.10882e-07 24.6214L35.8379 24.6214L35.8379 31.457C35.8379 33.6662 34.047 35.457 31.8379 35.457L4 35.457Z" fill="#FF0000"/>
<rect x="15.2637" y="24.6211" width="3.47309" height="5.32194" transform="rotate(-90 15.2637 24.6211)" fill="#00970F"/>
<path d="M17.9188 10.4668L24.8545 21.0846H10.9831L17.9188 10.4668Z" fill="#00970F"/>
</svg>
