<svg width="216" height="62" viewBox="0 0 216 62" fill="none" xmlns="http://www.w3.org/2000/svg">
<g filter="url(#filter0_i_12509_3516)">
<path d="M2.00689 39.9643C0.165848 39.7623 -0.647185 37.6399 0.595799 36.2627C1.24396 35.545 2.27843 35.3752 3.14804 35.8004C3.1739 35.8133 3.19815 35.8262 3.22401 35.8408C3.1044 35.962 3.00418 36.101 2.92498 36.2578C2.91528 36.2804 2.90235 36.3031 2.89265 36.3257C2.72132 36.7072 2.70192 37.1339 2.83123 37.5316C3.03651 38.1555 3.57799 38.5774 4.18898 38.6615C4.19383 38.6615 4.19544 38.6663 4.19383 38.6696C3.81236 39.5198 2.93468 40.0646 2.00689 39.9627V39.9643Z" fill="#EB819C"/>
<path d="M213.774 42.8008C213.756 42.72 213.699 42.6521 213.601 42.5939C213.502 42.5357 213.42 42.5082 213.35 42.5082C213.177 42.5082 213.04 42.5826 212.935 42.7329C211.553 45.1511 210.182 47.2477 208.823 49.021C207.717 50.3804 206.83 51.0593 206.162 51.0593C205.989 51.0593 205.693 50.93 205.273 50.6714C204.853 50.4127 204.556 49.3669 204.384 47.5354C204.303 46.6254 204.263 45.6927 204.263 44.7373C204.263 42.0993 204.62 38.6158 205.335 34.2853L205.352 34.0266C205.352 33.6581 205.231 33.3121 204.99 32.9905C204.68 32.5637 204.253 32.352 203.712 32.352C203.332 32.352 202.98 32.4732 202.658 32.714C202.335 32.9565 202.134 33.3073 202.053 33.768C201.707 35.7837 201.408 38.0419 201.155 40.541C201.006 41.9812 200.93 43.3795 200.93 44.7389C200.93 45.2239 200.941 45.7024 200.959 46.1744C200.675 46.488 200.401 46.7644 200.136 47.002C199.33 47.6696 198.64 48.0042 198.063 48.0042C197.959 48.0042 197.731 47.9638 197.38 47.883C197.03 47.8021 196.676 47.411 196.319 46.7078C195.766 45.649 195.339 44.0018 195.04 41.7663C194.993 41.4316 194.948 41.1391 194.903 40.8853C193.577 32.811 191.649 28.7747 189.114 28.7747C188.827 28.7747 188.204 28.9186 187.249 29.2063C186.292 29.494 184.658 31.3724 182.343 34.8381C180.927 36.946 179.296 39.9639 177.454 43.8903C177.719 41.0922 177.851 39.0522 177.851 37.7736C177.851 36.9912 177.811 36.3576 177.73 35.8726C177.627 35.4119 177.391 35.0612 177.022 34.8187C176.735 34.6344 176.429 34.5423 176.107 34.5423C175.508 34.5423 175.042 34.7961 174.708 35.302C174.523 35.5784 174.431 35.8775 174.431 36.2008C174.431 36.3155 174.442 36.4319 174.465 36.5467C174.499 36.7423 174.517 37.0478 174.517 37.4616C174.517 39.272 174.3 42.1914 173.867 46.2196C172.85 47.2784 172.011 47.8102 171.357 47.8102C170.793 47.8102 170.282 47.3722 169.828 46.4977C169.372 45.6231 168.973 43.9808 168.627 41.5739C168.396 39.7893 168.059 38.029 167.617 36.2961C167.174 34.5633 166.427 33.0681 165.379 31.8137C164.539 30.9036 163.652 30.4494 162.719 30.4494C161.798 30.4607 160.879 30.7581 159.963 31.3384C159.048 31.9204 158.198 32.6203 157.414 33.4382C156.63 34.2562 155.969 35.0224 155.427 35.7368C154.023 37.5214 152.513 39.9704 150.902 43.0788C150.787 41.7663 150.551 40.6493 150.194 39.7279C149.571 38.2068 148.8 37.2466 147.879 36.8425C147.371 36.6243 146.854 36.5144 146.324 36.5144C145.863 36.5144 145.252 36.6469 144.493 36.912C143.733 37.1771 142.863 37.7008 141.884 38.4848C140.904 39.2688 140.053 40.0916 139.327 40.9548C138.498 41.9457 137.651 43.1661 136.787 44.6177L136.96 42.9253C137.329 39.2058 137.542 36.2557 137.599 34.08C137.599 33.608 137.444 33.2135 137.132 32.8967C136.821 32.5799 136.429 32.4101 135.957 32.3875C135.485 32.3875 135.09 32.5395 134.773 32.845C134.457 33.1505 134.287 33.5384 134.264 34.0105C134.206 36.0844 133.999 38.952 133.642 42.6149C133.572 43.3294 133.5 44.0406 133.427 44.7486C132.265 45.586 131.116 46.357 129.981 47.0553C127.446 48.6217 125.316 49.7904 123.59 50.5631C123.003 50.8395 122.237 51.1224 121.291 51.4101C119.943 51.8368 118.752 52.0486 117.716 52.0486C117.013 52.0486 116.34 51.9112 115.695 51.6348C115.05 51.3584 114.635 50.7473 114.451 49.8033C114.417 49.5609 114.399 49.3022 114.399 49.0258C114.399 48.6459 114.433 48.2483 114.502 47.8329C117.934 46.4395 120.641 45.0574 122.622 43.6866C126.053 41.325 127.77 39.1831 127.77 37.2595C127.77 37.0979 127.721 36.7698 127.623 36.2751C127.524 35.7805 127.084 35.2907 126.3 34.8074C125.424 34.2772 124.406 34.0121 123.242 34.0121C122.31 34.0121 121.404 34.1964 120.53 34.5649C118.227 35.6124 115.998 37.6119 113.845 40.5604C113.384 41.194 112.909 42.0815 112.419 43.2211C112.047 44.0875 111.74 44.9895 111.499 45.9287C110.274 46.627 108.966 47.0796 107.575 47.2816C106.849 47.3851 106.118 47.4368 105.381 47.4368C102.975 47.4368 100.476 46.8905 97.8829 45.7961C98.7461 45.0477 100.175 43.7173 102.168 41.805C106.626 37.5327 109.602 33.9733 111.1 31.1283C111.134 31.0475 111.152 30.9731 111.152 30.9036C111.152 30.7306 111.066 30.5981 110.893 30.506C110.824 30.472 110.756 30.4542 110.686 30.4542C110.513 30.4542 110.376 30.5399 110.272 30.7129C109.432 32.3132 108.182 34.0509 106.524 35.9211C104.866 37.793 103.189 39.5404 101.497 41.1649C99.8048 42.7895 98.4794 44.0277 97.5241 44.8796C98.2159 33.2588 99.0613 22.8972 100.063 13.7982V13.643C100.063 13.2405 99.9357 12.8719 99.6836 12.5373C99.3603 12.1461 98.94 11.9505 98.4228 11.9505C98.0316 11.9505 97.668 12.0782 97.335 12.3304C96.6787 12.8493 95.8317 20.5889 94.7956 35.5509C94.55 39.112 94.3382 42.3579 94.162 45.2885C92.654 46.357 91.0117 47.023 89.2337 47.2816C88.508 47.3851 87.7774 47.4368 87.0403 47.4368C84.6335 47.4368 82.1346 46.8905 79.5419 45.7961C80.4051 45.0477 81.834 43.7173 83.8269 41.805C88.2849 37.5327 91.2606 33.9733 92.759 31.1283C92.793 31.0475 92.8107 30.9731 92.8107 30.9036C92.8107 30.7306 92.7251 30.5981 92.5521 30.506C92.4826 30.472 92.4147 30.4542 92.3452 30.4542C92.1723 30.4542 92.0349 30.5399 91.9314 30.7129C91.0909 32.3132 89.8415 34.0509 88.1831 35.9211C86.5247 37.793 84.8485 39.5404 83.1561 41.1649C81.4638 42.7895 80.1384 44.0277 79.1831 44.8796C79.8749 33.2588 80.7203 22.8972 81.7224 13.7982V13.643C81.7224 13.2405 81.5947 12.8719 81.3426 12.5373C81.0193 12.1461 80.599 11.9505 80.0818 11.9505C79.6906 11.9505 79.327 12.0782 78.994 12.3304C78.3377 12.8493 77.4908 20.5889 76.4547 35.5509C76.091 40.8158 75.8049 45.3888 75.5931 49.2747C74.3889 51.7011 73.3011 53.657 72.3281 55.1425C70.9121 57.3538 69.8178 58.4595 69.0452 58.4595C68.1352 58.4595 67.681 56.8527 67.681 53.6392C67.681 49.3782 68.4924 43.8951 70.1169 37.1917C70.1508 37.0543 70.1686 36.9152 70.1686 36.7778C70.1686 36.4788 70.07 36.1668 69.8744 35.8451C69.6788 35.5235 69.3555 35.2988 68.9062 35.1711C68.7559 35.1484 68.6185 35.1371 68.4908 35.1371C68.0188 35.1371 67.6099 35.3166 67.264 35.6722C66.8033 34.6005 66.1842 33.6597 65.4067 32.8482C64.6293 32.0368 63.7273 31.4855 62.7025 31.1978C62.3114 31.083 61.9138 31.0248 61.5097 31.0248C60.8308 31.0248 60.1212 31.18 59.3841 31.492C58.1751 32.0109 57.0582 32.7933 56.0334 33.8423C55.1573 34.7298 54.4089 35.7837 53.7882 37.0042C53.7721 37.0365 53.7559 37.0704 53.7398 37.1028C52.5113 38.5608 51.3249 40.3454 50.1853 42.4516C49.5727 43.5832 48.9714 44.8165 48.3831 46.1404C48.1422 46.6835 47.3308 46.5138 47.3308 45.9206C47.3308 32.7933 47.3244 10.6477 47.3244 10.3907C47.3244 9.75053 46.8039 9.22356 46.1638 9.21548C45.5221 9.20739 44.9903 9.72143 44.9742 10.3599C44.9742 10.423 44.7786 18.0996 44.6897 22.228C44.638 24.6301 43.7279 32.748 34.1622 36.3818C31.416 37.4244 29.1418 39.2333 27.4381 41.7C27.2037 42.0394 26.6752 41.8713 26.6849 41.4591L27.5933 1.58091C27.6014 1.32712 27.6014 1.18811 27.6014 1.17517C27.6014 0.533437 27.0793 0.00646587 26.4263 0C25.7926 0 25.2657 0.515655 25.2512 1.14931L25.2415 1.5405C25.18 3.3865 24.6192 13.0869 19.6763 22.8277C16.8137 28.4692 12.7113 31.7393 9.77438 33.4899C6.61598 35.3715 4.06696 35.9551 4.04271 35.9599C3.41071 36.0973 3.00662 36.7245 3.14401 37.3582C3.2814 37.9918 3.90856 38.3959 4.54217 38.2585C4.65855 38.2327 7.4274 37.6168 10.9301 35.538C14.1499 33.6274 18.645 30.0566 21.7727 23.8914C22.4985 22.4608 23.1644 20.9737 23.7657 19.4364C23.9904 18.8625 24.8422 19.0307 24.8277 19.6465L24.0938 51.8514C24.0841 52.026 24.0825 52.131 24.0825 52.1521C24.0825 52.1795 24.0825 52.2054 24.0858 52.2329L23.908 60.055C23.8983 60.4688 24.1019 60.8535 24.4688 61.0863C24.6483 61.201 24.86 61.2544 25.0734 61.2576H25.0847C25.7183 61.2576 26.2452 60.742 26.2598 60.1083L26.4457 51.9807C26.5329 50.5 27.3735 41.4737 34.9979 38.5786C39.6514 36.8118 42.4898 34.0848 44.2225 31.4176C44.4456 31.0733 44.979 31.2317 44.979 31.6423C44.9806 41.6466 44.9822 54.6754 44.9742 55.2896C44.9645 55.9815 45.4655 56.4276 45.9634 56.5117C46.0361 56.5246 46.1105 56.5311 46.18 56.5311C47.0124 56.5311 47.292 55.7455 47.3987 55.4496C47.4698 55.2492 47.5636 54.9712 47.6961 54.5687C49.2074 50.0313 50.7252 46.1065 52.2899 42.9204C52.2866 43.0384 52.285 43.1548 52.285 43.2744C52.285 45.3241 52.7635 47.0473 53.7187 48.4407C54.7904 49.9618 55.9413 50.7215 57.1745 50.7215C58.1993 50.7215 59.2306 50.3465 60.2667 49.598C61.3028 48.8496 62.271 47.8991 63.1697 46.7466C64.0684 45.5957 64.8055 44.5126 65.3809 43.4991C64.6907 47.4724 64.3448 50.8653 64.3448 53.6748L64.3626 54.331C64.4547 57.1873 64.8119 59.1109 65.4342 60.1018C65.9062 60.8729 66.4703 61.2592 67.1266 61.2592C67.3221 61.2592 67.6988 61.1639 68.258 60.9747C68.8173 60.784 69.5738 60.1633 70.529 59.1093C71.4843 58.0554 72.3426 56.9012 73.1039 55.6452C73.8685 54.4781 74.6459 53.0266 75.4865 51.2905C75.341 54.1532 75.244 56.5893 75.1923 58.6001C75.2036 59.0721 75.362 59.4698 75.6675 59.7915C75.973 60.1132 76.3609 60.2813 76.8329 60.2926C77.3049 60.2926 77.6993 60.139 78.0161 59.8351C78.3329 59.5296 78.5026 59.1417 78.5252 58.6696C78.5947 55.9637 78.779 51.9435 79.078 46.6108C81.8194 47.7747 84.4799 48.355 87.0597 48.355C89.7897 48.355 92.085 47.6647 94.1055 46.2924C93.8048 51.4036 93.6157 55.5078 93.5365 58.6001C93.5478 59.0721 93.7062 59.4698 94.0117 59.7915C94.3172 60.1132 94.7051 60.2813 95.1771 60.2926C95.6491 60.2926 96.0435 60.139 96.3603 59.8351C96.6771 59.5296 96.8468 59.1417 96.8695 58.6696C96.939 55.9637 97.1232 51.9435 97.4223 46.6108C100.164 47.7747 102.824 48.355 105.404 48.355C107.539 48.355 109.485 47.9363 111.242 47.099C111.118 47.7439 111.052 48.376 111.052 48.9935C111.052 49.4542 111.085 49.9084 111.155 50.3578C111.443 51.8659 112.07 52.8681 113.038 53.3644C113.764 53.733 114.582 53.9172 115.492 53.9172C117.566 53.9172 120.393 53.0815 123.974 51.4117C125.736 50.6277 127.902 49.4429 130.471 47.8523C131.405 47.2687 132.349 46.6383 133.304 45.9658C132.997 48.8157 132.658 51.6105 132.284 54.3472L132.266 54.5541C132.266 54.9453 132.394 55.3025 132.646 55.6258C132.957 56.0397 133.379 56.2482 133.907 56.2482C134.298 56.2482 134.659 56.1237 134.987 55.8764C135.315 55.6291 135.52 55.2686 135.599 54.7966C135.921 52.3428 136.238 49.7451 136.55 47.0052C137.736 44.7244 138.9 42.9107 140.04 41.5626C140.799 40.6751 141.64 40.0027 142.563 39.542C143.242 39.2074 143.893 39.0409 144.515 39.0409C144.745 39.0409 145.123 39.0991 145.647 39.2139C146.17 39.3286 146.652 39.9057 147.089 40.9419C147.446 41.8633 147.624 43.1241 147.624 44.726C147.612 45.6021 147.554 46.5752 147.451 47.6453L147.433 47.8361C147.433 48.2273 147.559 48.5845 147.813 48.9078C148.134 49.3119 148.568 49.5124 149.109 49.5124C149.5 49.5124 149.857 49.383 150.181 49.1244C150.502 48.8658 150.7 48.5005 150.767 48.0268C150.882 47.0359 150.952 46.0224 150.974 44.9863C154.729 37.4535 157.867 33.4398 160.39 32.9436C160.504 32.921 160.626 32.9096 160.752 32.9096C161.466 32.9096 162.174 33.2847 162.877 34.0331C163.603 34.9205 164.141 36.0925 164.492 37.5489C164.843 39.0053 165.122 40.5119 165.329 42.0669C165.848 45.4534 166.493 47.8199 167.264 49.1681C167.932 50.319 168.687 50.8961 169.527 50.8961C169.653 50.8961 169.999 50.8379 170.563 50.7231C171.127 50.6083 171.99 49.9197 173.154 48.6589C173.321 48.4778 173.489 48.2903 173.659 48.098C173.521 49.2634 173.416 50.007 173.343 50.3255C173.321 50.4515 173.309 50.5792 173.309 50.7053C173.309 51.027 173.413 51.3503 173.62 51.6736C173.907 52.123 174.368 52.3476 175.002 52.3476C175.312 52.3476 175.629 52.2474 175.952 52.0454C176.274 51.8433 176.487 51.5216 176.592 51.0771C176.696 50.6342 176.886 49.202 177.163 46.7838C181.331 37.4665 184.493 32.4845 186.648 31.8395C186.877 31.77 187.102 31.7361 187.322 31.7361C187.989 31.7361 188.605 32.1451 189.171 32.963C190.104 34.3224 190.921 37.1496 191.625 41.4462C191.843 42.9431 192.143 44.4577 192.523 45.9901C193.238 48.8819 194.4 50.3271 196.013 50.3271C196.186 50.3271 196.585 50.2802 197.214 50.1881C197.841 50.0959 199.024 49.2667 200.764 47.7003C200.854 47.6179 200.946 47.5306 201.04 47.4417C201.051 47.5855 201.061 47.731 201.074 47.8733C201.489 51.478 202.6 53.2803 204.408 53.2803C204.811 53.2803 205.43 53.0961 206.266 52.7275C207.101 52.359 208.197 51.3163 209.557 49.5997C210.95 47.7795 212.35 45.6555 213.754 43.2243C213.788 43.1548 213.806 43.0804 213.806 42.9996C213.806 42.9544 213.798 42.8897 213.78 42.8089L213.774 42.8008ZM65.9789 40.2953C65.6557 41.0211 65.1433 41.957 64.4418 43.1031C63.7386 44.2492 62.9305 45.3096 62.014 46.2827C61.0991 47.2558 60.1568 47.8409 59.1902 48.0365C59.0528 48.0592 58.9138 48.0705 58.7748 48.0705C57.9569 48.0705 57.1907 47.5694 56.4763 46.5672C55.9008 45.7266 55.6131 44.5918 55.6131 43.1629C55.6131 42.6569 55.6584 42.1267 55.7521 41.5739C56.1902 39.3173 57.0824 37.5085 58.4305 36.149C58.9606 35.6075 59.5134 35.1695 60.0889 34.8365C61.3787 34.088 62.5021 33.713 63.4574 33.713C63.7225 33.713 64.1945 33.7987 64.8733 33.9717C65.5522 34.1446 66.1745 35.1355 66.7386 36.9427C66.4622 38.071 66.2085 39.188 65.9789 40.2937V40.2953ZM116.576 42.4904C117.924 40.6477 119.23 39.2947 120.498 38.4299C121.12 37.8657 121.857 37.3986 122.709 37.03C123.63 36.6501 124.448 36.4594 125.162 36.4594C125.877 36.4594 126.32 36.6728 126.562 37.0979C126.632 37.2256 126.666 37.3808 126.666 37.5651C126.666 38.0031 126.452 38.5964 126.027 39.3448C125.301 40.4165 124.029 41.5885 122.209 42.8606C120.389 44.1328 117.895 45.4259 114.729 46.7385C115.282 44.8505 115.897 43.4328 116.578 42.4888L116.576 42.4904Z" fill="white"/>
<path d="M204.367 30.8033C205.31 30.8033 206.075 29.8929 206.075 28.7698C206.075 27.6468 205.31 26.7363 204.367 26.7363C203.423 26.7363 202.658 27.6468 202.658 28.7698C202.658 29.8929 203.423 30.8033 204.367 30.8033Z" fill="white"/>
<path d="M216.001 41.6844C216.001 42.8595 215.086 43.8181 213.93 43.8828C214.019 43.734 214.103 43.5869 214.192 43.4334C214.261 43.2944 214.295 43.1473 214.295 42.9888C214.295 42.9096 214.281 42.8159 214.257 42.6979C214.223 42.5443 214.129 42.3326 213.851 42.1693C213.673 42.0659 213.51 42.0157 213.351 42.0157C213.015 42.0157 212.724 42.1693 212.506 42.4845C212.383 42.7011 212.259 42.9145 212.131 43.1263C211.8 42.7415 211.598 42.2372 211.598 41.6827C211.598 40.4672 212.58 39.4844 213.801 39.4844C215.021 39.4844 215.999 40.4672 215.999 41.6827L216.001 41.6844Z" fill="#EB819C"/>
</g>
<defs>
<filter id="filter0_i_12509_3516" x="0" y="0" width="216" height="65.2598" filterUnits="userSpaceOnUse" color-interpolation-filters="sRGB">
<feFlood flood-opacity="0" result="BackgroundImageFix"/>
<feBlend mode="normal" in="SourceGraphic" in2="BackgroundImageFix" result="shape"/>
<feColorMatrix in="SourceAlpha" type="matrix" values="0 0 0 0 0 0 0 0 0 0 0 0 0 0 0 0 0 0 127 0" result="hardAlpha"/>
<feOffset dy="4"/>
<feGaussianBlur stdDeviation="2"/>
<feComposite in2="hardAlpha" operator="arithmetic" k2="-1" k3="1"/>
<feColorMatrix type="matrix" values="0 0 0 0 0 0 0 0 0 0 0 0 0 0 0 0 0 0 0.25 0"/>
<feBlend mode="normal" in2="shape" result="effect1_innerShadow_12509_3516"/>
</filter>
</defs>
</svg>
