<svg width="15" height="15" viewBox="0 0 15 15" fill="none" xmlns="http://www.w3.org/2000/svg">
<path d="M10.7812 5.625H10.3125V3.28125C10.3125 2.53533 10.0162 1.81996 9.48874 1.29251C8.96129 0.765066 8.24592 0.46875 7.5 0.46875C6.75408 0.46875 6.03871 0.765066 5.51126 1.29251C4.98382 1.81996 4.6875 2.53533 4.6875 3.28125V5.625H4.21875C3.72164 5.62554 3.24504 5.82326 2.89352 6.17477C2.54201 6.52629 2.34429 7.00289 2.34375 7.5V12.6562C2.34429 13.1534 2.54201 13.63 2.89352 13.9815C3.24504 14.333 3.72164 14.5307 4.21875 14.5312H10.7812C11.2784 14.5307 11.755 14.333 12.1065 13.9815C12.458 13.63 12.6557 13.1534 12.6562 12.6562V7.5C12.6557 7.00289 12.458 6.52629 12.1065 6.17477C11.755 5.82326 11.2784 5.62554 10.7812 5.625V5.625ZM9.375 5.625H5.625V3.28125C5.625 2.78397 5.82254 2.30706 6.17417 1.95542C6.52581 1.60379 7.00272 1.40625 7.5 1.40625C7.99728 1.40625 8.47419 1.60379 8.82582 1.95542C9.17746 2.30706 9.375 2.78397 9.375 3.28125V5.625Z" fill="black"/>
</svg>
