<svg width="160" height="46" viewBox="0 0 160 46" fill="none" xmlns="http://www.w3.org/2000/svg">
<g filter="url(#filter0_i_12691_2362)">
<path d="M1.48272 29.5257C0.122531 29.3764 -0.47815 27.8083 0.440185 26.7908C0.919056 26.2606 1.68334 26.1352 2.32582 26.4493C2.34492 26.4588 2.36284 26.4684 2.38194 26.4791C2.29357 26.5687 2.21953 26.6714 2.16102 26.7872C2.15385 26.804 2.1443 26.8207 2.13713 26.8374C2.01055 27.1192 1.99622 27.4345 2.09175 27.7283C2.24342 28.1893 2.64347 28.501 3.09488 28.5631C3.09846 28.5631 3.09965 28.5667 3.09846 28.5691C2.81663 29.1973 2.16818 29.5997 1.48272 29.5245V29.5257Z" fill="#EB819C"/>
<path d="M157.939 31.6219C157.926 31.5622 157.884 31.512 157.811 31.469C157.738 31.426 157.677 31.4057 157.626 31.4057C157.498 31.4057 157.397 31.4606 157.319 31.5717C156.298 33.3583 155.285 34.9073 154.281 36.2174C153.464 37.2218 152.809 37.7234 152.315 37.7234C152.188 37.7234 151.969 37.6278 151.659 37.4368C151.348 37.2457 151.128 36.473 151.002 35.1199C150.942 34.4475 150.912 33.7584 150.912 33.0526C150.912 31.1036 151.176 28.5299 151.704 25.3305L151.717 25.1394C151.717 24.8671 151.628 24.6115 151.45 24.3738C151.22 24.0586 150.905 23.9021 150.505 23.9021C150.224 23.9021 149.964 23.9917 149.726 24.1696C149.488 24.3488 149.339 24.6079 149.28 24.9483C149.024 26.4375 148.803 28.1059 148.616 29.9523C148.506 31.0164 148.45 32.0494 148.45 33.0538C148.45 33.4121 148.458 33.7656 148.471 34.1143C148.261 34.346 148.059 34.5502 147.863 34.7258C147.268 35.219 146.758 35.4662 146.331 35.4662C146.255 35.4662 146.086 35.4364 145.827 35.3767C145.568 35.3169 145.307 35.0279 145.043 34.5084C144.634 33.7262 144.319 32.5092 144.098 30.8575C144.063 30.6103 144.03 30.3942 143.997 30.2067C143.017 24.2413 141.593 21.2592 139.72 21.2592C139.508 21.2592 139.048 21.3655 138.342 21.5781C137.635 21.7906 136.428 23.1784 134.718 25.7389C133.672 27.2962 132.467 29.5259 131.105 32.4268C131.301 30.3595 131.399 28.8524 131.399 27.9077C131.399 27.3297 131.369 26.8615 131.309 26.5032C131.233 26.1629 131.059 25.9037 130.786 25.7246C130.574 25.5884 130.348 25.5203 130.11 25.5203C129.667 25.5203 129.323 25.7078 129.076 26.0817C128.94 26.2859 128.872 26.5068 128.872 26.7457C128.872 26.8305 128.88 26.9164 128.897 27.0012C128.922 27.1457 128.935 27.3715 128.935 27.6772C128.935 29.0148 128.775 31.1716 128.455 34.1477C127.704 34.93 127.084 35.3229 126.601 35.3229C126.184 35.3229 125.807 34.9993 125.471 34.3532C125.134 33.7071 124.839 32.4937 124.584 30.7154C124.413 29.3969 124.165 28.0964 123.837 26.8161C123.51 25.5359 122.958 24.4312 122.185 23.5044C121.564 22.832 120.908 22.4965 120.219 22.4965C119.538 22.5048 118.86 22.7246 118.183 23.1533C117.507 23.5832 116.879 24.1004 116.299 24.7047C115.72 25.309 115.232 25.875 114.832 26.4029C113.794 27.7214 112.679 29.5307 111.488 31.8273C111.403 30.8575 111.229 30.0323 110.965 29.3516C110.505 28.2278 109.936 27.5184 109.255 27.2198C108.88 27.0586 108.498 26.9774 108.106 26.9774C107.766 26.9774 107.314 27.0753 106.753 27.2711C106.192 27.467 105.549 27.8539 104.826 28.4332C104.102 29.0124 103.473 29.6203 102.936 30.258C102.324 30.9901 101.698 31.8918 101.06 32.9642L101.188 31.7138C101.46 28.9658 101.618 26.7863 101.66 25.1788C101.66 24.8301 101.545 24.5387 101.315 24.3046C101.085 24.0705 100.795 23.9451 100.446 23.9284C100.098 23.9284 99.8064 24.0406 99.5723 24.2664C99.3383 24.4921 99.2129 24.7787 99.1962 25.1274C99.1532 26.6597 99.0003 28.7783 98.7364 31.4845C98.685 32.0124 98.6313 32.5379 98.5776 33.061C97.7189 33.6796 96.8699 34.2493 96.0315 34.7652C94.159 35.9224 92.5851 36.7859 91.3096 37.3567C90.8762 37.561 90.3101 37.77 89.6115 37.9826C88.6155 38.2978 87.7354 38.4543 86.9699 38.4543C86.4504 38.4543 85.9537 38.3528 85.4772 38.1485C85.0007 37.9443 84.6938 37.4929 84.5576 36.7954C84.5326 36.6163 84.5194 36.4252 84.5194 36.221C84.5194 35.9403 84.5445 35.6466 84.5958 35.3396C87.1311 34.3102 89.1314 33.2891 90.5943 32.2763C93.1296 30.5315 94.3979 28.9491 94.3979 27.5279C94.3979 27.4085 94.362 27.166 94.2892 26.8006C94.2163 26.4352 93.8915 26.0733 93.3123 25.7162C92.6651 25.3245 91.9127 25.1286 91.0529 25.1286C90.3638 25.1286 89.6951 25.2648 89.049 25.5371C87.3473 26.311 85.7005 27.7883 84.1098 29.9666C83.7695 30.4348 83.4184 31.0904 83.0565 31.9324C82.7819 32.5725 82.555 33.2389 82.377 33.9328C81.4718 34.4487 80.5057 34.7831 79.4775 34.9324C78.9413 35.0088 78.4015 35.047 77.857 35.047C76.0788 35.047 74.2326 34.6434 72.3171 33.8348C72.9548 33.2819 74.0104 32.299 75.4829 30.8862C78.7765 27.7297 80.975 25.1 82.0821 22.998C82.1071 22.9383 82.1203 22.8834 82.1203 22.832C82.1203 22.7043 82.057 22.6063 81.9292 22.5383C81.8779 22.5132 81.8277 22.5 81.7763 22.5C81.6486 22.5 81.5471 22.5633 81.4706 22.6911C80.8496 23.8734 79.9265 25.1573 78.7013 26.5391C77.476 27.922 76.2376 29.213 74.9873 30.4133C73.737 31.6135 72.7577 32.5283 72.052 33.1577C72.5631 24.5721 73.1876 16.9168 73.9281 10.1943V10.0796C73.9281 9.78226 73.8337 9.50997 73.6474 9.26276C73.4086 8.97374 73.0981 8.82924 72.7159 8.82924C72.4269 8.82924 72.1582 8.92358 71.9122 9.10989C71.4274 9.49325 70.8016 15.2114 70.0361 26.2656C69.8546 28.8965 69.6982 31.2946 69.568 33.4599C68.4538 34.2493 67.2405 34.7413 65.9269 34.9324C65.3907 35.0088 64.8509 35.047 64.3064 35.047C62.5282 35.047 60.682 34.6434 58.7665 33.8348C59.4042 33.2819 60.4599 32.299 61.9323 30.8862C65.2259 27.7297 67.4244 25.1 68.5315 22.998C68.5565 22.9383 68.5697 22.8834 68.5697 22.832C68.5697 22.7043 68.5064 22.6063 68.3786 22.5383C68.3272 22.5132 68.2771 22.5 68.2257 22.5C68.098 22.5 67.9965 22.5633 67.92 22.6911C67.299 23.8734 66.3759 25.1573 65.1507 26.5391C63.9254 27.922 62.687 29.213 61.4367 30.4133C60.1864 31.6135 59.2071 32.5283 58.5014 33.1577C59.0125 24.5721 59.637 16.9168 60.3774 10.1943V10.0796C60.3774 9.78226 60.2831 9.50997 60.0968 9.26276C59.858 8.97374 59.5475 8.82924 59.1653 8.82924C58.8763 8.82924 58.6076 8.92358 58.3616 9.10989C57.8768 9.49325 57.251 15.2114 56.4856 26.2656C56.2169 30.1553 56.0055 33.5339 55.849 36.4049C54.9594 38.1975 54.1557 39.6426 53.4368 40.7401C52.3906 42.3739 51.5822 43.1908 51.0113 43.1908C50.339 43.1908 50.0034 42.0037 50.0034 39.6294C50.0034 36.4813 50.6029 32.4304 51.8031 27.4778C51.8282 27.3762 51.8413 27.2735 51.8413 27.172C51.8413 26.9511 51.7685 26.7206 51.624 26.4829C51.4795 26.2453 51.2406 26.0793 50.9086 25.9849C50.7976 25.9682 50.6961 25.9598 50.6017 25.9598C50.253 25.9598 49.9509 26.0924 49.6953 26.3551C49.355 25.5633 48.8976 24.8683 48.3232 24.2688C47.7488 23.6692 47.0824 23.262 46.3253 23.0494C46.0363 22.9646 45.7425 22.9216 45.444 22.9216C44.9424 22.9216 44.4181 23.0363 43.8736 23.2668C42.9803 23.6501 42.1551 24.2281 41.398 25.0032C40.7508 25.6589 40.1978 26.4375 39.7393 27.3392C39.7273 27.3631 39.7154 27.3882 39.7034 27.4121C38.7958 28.4893 37.9193 29.8078 37.0774 31.3639C36.6248 32.1999 36.1805 33.1111 35.7459 34.0892C35.5679 34.4905 34.9684 34.3651 34.9684 33.9268C34.9684 24.2281 34.9637 7.86666 34.9637 7.67677C34.9637 7.20384 34.5791 6.8145 34.1062 6.80853C33.6321 6.80256 33.2392 7.18234 33.2273 7.65408C33.2273 7.70065 33.0828 13.3722 33.0171 16.4224C32.9789 18.1971 32.3066 24.1947 25.2393 26.8794C23.2103 27.6497 21.5301 28.9861 20.2714 30.8086C20.0982 31.0594 19.7077 30.9352 19.7149 30.6306L20.386 1.168C20.392 0.980499 20.392 0.87779 20.392 0.868236C20.392 0.394111 20.0063 0.00477708 19.5238 0C19.0557 0 18.6664 0.380974 18.6556 0.849127L18.6485 1.13814C18.6031 2.502 18.1887 9.66881 14.5368 16.8655C12.4219 21.0335 9.39103 23.4495 7.22116 24.7429C4.8877 26.133 3.00444 26.5641 2.98653 26.5677C2.5196 26.6692 2.22105 27.1326 2.32255 27.6008C2.42406 28.0689 2.88741 28.3675 3.35554 28.266C3.44152 28.2469 5.48719 27.7918 8.07502 26.256C10.4539 24.8444 13.7749 22.2062 16.0857 17.6513C16.6219 16.5944 17.1139 15.4956 17.5582 14.3599C17.7242 13.9359 18.3535 14.0601 18.3428 14.5152L17.8006 38.3086C17.7934 38.4376 17.7922 38.5152 17.7922 38.5307C17.7922 38.551 17.7922 38.5701 17.7946 38.5904L17.6633 44.3695C17.6561 44.6752 17.8066 44.9595 18.0776 45.1314C18.2102 45.2162 18.3666 45.2556 18.5243 45.258H18.5326C19.0008 45.258 19.3901 44.8771 19.4008 44.4089L19.5382 38.4041C19.6026 37.3102 20.2236 30.6414 25.8567 28.5024C29.2948 27.1971 31.3918 25.1824 32.672 23.2118C32.8368 22.9574 33.2309 23.0745 33.2309 23.3778C33.2321 30.7692 33.2333 40.395 33.2273 40.8488C33.2201 41.3599 33.5903 41.6896 33.9581 41.7517C34.0119 41.7612 34.0668 41.766 34.1182 41.766C34.7332 41.766 34.9398 41.1856 35.0186 40.967C35.0711 40.8189 35.1404 40.6135 35.2383 40.3162C36.3549 36.9638 37.4763 34.0641 38.6322 31.7102C38.6299 31.7974 38.6287 31.8834 38.6287 31.9718C38.6287 33.4861 38.9821 34.7592 39.6879 35.7887C40.4797 36.9125 41.3299 37.4738 42.2411 37.4738C42.9982 37.4738 43.7601 37.1967 44.5256 36.6438C45.2911 36.0908 46.0064 35.3886 46.6704 34.5371C47.3344 33.6868 47.8789 32.8866 48.3041 32.1378C47.7942 35.0733 47.5386 37.5801 47.5386 39.6557L47.5517 40.1406C47.6198 42.2509 47.8837 43.672 48.3435 44.4041C48.6922 44.9738 49.109 45.2592 49.5938 45.2592C49.7383 45.2592 50.0166 45.1888 50.4298 45.049C50.8429 44.9081 51.4018 44.4495 52.1076 43.6709C52.8134 42.8922 53.4475 42.0395 54.01 41.1115C54.5748 40.2493 55.1492 39.1768 55.7702 37.8942C55.6628 40.0092 55.5911 41.809 55.5529 43.2947C55.5612 43.6434 55.6783 43.9372 55.904 44.1748C56.1297 44.4125 56.4163 44.5367 56.765 44.5451C57.1137 44.5451 57.4051 44.4316 57.6391 44.2071C57.8732 43.9814 57.9986 43.6947 58.0153 43.346C58.0667 41.3468 58.2028 38.3767 58.4237 34.4368C60.4491 35.2966 62.4148 35.7254 64.3207 35.7254C66.3377 35.7254 68.0335 35.2154 69.5262 34.2015C69.3041 37.9778 69.1644 41.01 69.1059 43.2947C69.1142 43.6434 69.2313 43.9372 69.457 44.1748C69.6827 44.4125 69.9693 44.5367 70.318 44.5451C70.6667 44.5451 70.9581 44.4316 71.1921 44.2071C71.4262 43.9814 71.5516 43.6947 71.5683 43.346C71.6197 41.3468 71.7558 38.3767 71.9767 34.4368C74.0021 35.2966 75.9677 35.7254 77.8737 35.7254C79.4512 35.7254 80.889 35.4161 82.1871 34.7974C82.0952 35.2739 82.0462 35.7409 82.0462 36.1971C82.0462 36.5375 82.0713 36.8731 82.1227 37.2051C82.3352 38.3193 82.7986 39.0598 83.5139 39.4264C84.0501 39.6987 84.6544 39.8349 85.3267 39.8349C86.8589 39.8349 88.9475 39.2174 91.5939 37.9837C92.8955 37.4045 94.4958 36.5291 96.3934 35.354C97.0836 34.9228 97.781 34.4571 98.4868 33.9602C98.2599 36.0657 98.0091 38.1306 97.7333 40.1525L97.7201 40.3054C97.7201 40.5944 97.8145 40.8583 98.0008 41.0972C98.23 41.4029 98.5417 41.557 98.9322 41.557C99.2212 41.557 99.4875 41.465 99.73 41.2823C99.9724 41.0996 100.124 40.8333 100.183 40.4845C100.42 38.6716 100.654 36.7525 100.885 34.7282C101.761 33.0431 102.621 31.7031 103.463 30.7071C104.024 30.0514 104.645 29.5546 105.327 29.2142C105.829 28.967 106.31 28.844 106.77 28.844C106.939 28.844 107.219 28.887 107.606 28.9718C107.993 29.0566 108.349 29.4829 108.671 30.2485C108.935 30.9292 109.066 31.8607 109.066 33.0442C109.058 33.6915 109.015 34.4105 108.938 35.2011L108.925 35.342C108.925 35.631 109.018 35.895 109.206 36.1338C109.444 36.4324 109.764 36.5805 110.164 36.5805C110.453 36.5805 110.717 36.4849 110.955 36.2938C111.193 36.1028 111.339 35.8329 111.389 35.4829C111.474 34.7509 111.525 34.002 111.542 33.2365C114.316 27.6712 116.634 24.7059 118.498 24.3392C118.583 24.3225 118.672 24.3141 118.766 24.3141C119.293 24.3141 119.816 24.5912 120.336 25.1442C120.872 25.7998 121.27 26.6657 121.529 27.7417C121.788 28.8177 121.995 29.9308 122.148 31.0797C122.531 33.5817 123.007 35.3301 123.577 36.3261C124.07 37.1764 124.628 37.6028 125.249 37.6028C125.342 37.6028 125.598 37.5598 126.014 37.475C126.431 37.3902 127.069 36.8814 127.929 35.9499C128.052 35.8161 128.176 35.6776 128.301 35.5355C128.2 36.3966 128.122 36.9459 128.068 37.1812C128.052 37.2743 128.043 37.3687 128.043 37.4618C128.043 37.6995 128.12 37.9384 128.273 38.1772C128.485 38.5092 128.825 38.6752 129.294 38.6752C129.523 38.6752 129.757 38.6012 129.996 38.4519C130.233 38.3026 130.391 38.065 130.469 37.7365C130.545 37.4093 130.686 36.3512 130.89 34.5646C133.97 27.6808 136.306 24 137.898 23.5235C138.067 23.4722 138.233 23.4471 138.396 23.4471C138.889 23.4471 139.344 23.7492 139.762 24.3535C140.451 25.3579 141.055 27.4467 141.575 30.6211C141.736 31.727 141.958 32.846 142.239 33.9782C142.767 36.1147 143.625 37.1824 144.817 37.1824C144.945 37.1824 145.24 37.1478 145.704 37.0797C146.168 37.0116 147.042 36.3989 148.327 35.2417C148.394 35.1808 148.462 35.1163 148.531 35.0506C148.539 35.1569 148.547 35.2644 148.556 35.3695C148.863 38.0327 149.683 39.3643 151.02 39.3643C151.317 39.3643 151.774 39.2282 152.392 38.9559C153.009 38.6836 153.819 37.9133 154.823 36.645C155.853 35.3002 156.887 33.7309 157.925 31.9348C157.95 31.8834 157.963 31.8285 157.963 31.7688C157.963 31.7353 157.957 31.6876 157.944 31.6278L157.939 31.6219ZM48.7459 29.7708C48.5071 30.307 48.1285 30.9985 47.6102 31.8452C47.0908 32.6919 46.4937 33.4754 45.8166 34.1943C45.1406 34.9133 44.4444 35.3456 43.7303 35.4901C43.6288 35.5068 43.5261 35.5152 43.4234 35.5152C42.8191 35.5152 42.2531 35.145 41.7252 34.4045C41.3001 33.7835 41.0875 32.9451 41.0875 31.8894C41.0875 31.5156 41.121 31.1239 41.1902 30.7154C41.5139 29.0482 42.173 27.7118 43.169 26.7074C43.5607 26.3074 43.9691 25.9837 44.3943 25.7377C45.3472 25.1848 46.1772 24.9077 46.883 24.9077C47.0788 24.9077 47.4275 24.971 47.9291 25.0988C48.4307 25.2266 48.8904 25.9586 49.3072 27.2938C49.103 28.1274 48.9155 28.9527 48.7459 29.7696V29.7708ZM86.128 31.3926C87.124 30.0311 88.0889 29.0315 89.0252 28.3926C89.4849 27.9758 90.0295 27.6306 90.6588 27.3583C91.3395 27.0777 91.9438 26.9367 92.4716 26.9367C92.9995 26.9367 93.3267 27.0944 93.5058 27.4085C93.5571 27.5028 93.5822 27.6175 93.5822 27.7536C93.5822 28.0773 93.4246 28.5156 93.1105 29.0685C92.5743 29.8603 91.6345 30.7262 90.2898 31.6661C88.9451 32.6059 87.1025 33.5614 84.763 34.5311C85.1715 33.1362 85.6264 32.0888 86.1292 31.3914L86.128 31.3926Z" fill="white"/>
<path d="M150.989 22.7587C151.686 22.7587 152.251 22.086 152.251 21.2563C152.251 20.4265 151.686 19.7539 150.989 19.7539C150.292 19.7539 149.727 20.4265 149.727 21.2563C149.727 22.086 150.292 22.7587 150.989 22.7587Z" fill="white"/>
<path d="M159.583 30.7973C159.583 31.6655 158.907 32.3737 158.053 32.4215C158.119 32.3116 158.181 32.2029 158.247 32.0895C158.298 31.9867 158.323 31.8781 158.323 31.761C158.323 31.7025 158.312 31.6332 158.295 31.5461C158.269 31.4326 158.2 31.2762 157.995 31.1555C157.863 31.0791 157.743 31.0421 157.626 31.0421C157.377 31.0421 157.162 31.1555 157.001 31.3884C156.91 31.5485 156.818 31.7061 156.724 31.8625C156.479 31.5783 156.33 31.2057 156.33 30.7961C156.33 29.898 157.056 29.1719 157.958 29.1719C158.859 29.1719 159.582 29.898 159.582 30.7961L159.583 30.7973Z" fill="#EB819C"/>
</g>
<defs>
<filter id="filter0_i_12691_2362" x="0" y="0" width="159.584" height="49.2598" filterUnits="userSpaceOnUse" color-interpolation-filters="sRGB">
<feFlood flood-opacity="0" result="BackgroundImageFix"/>
<feBlend mode="normal" in="SourceGraphic" in2="BackgroundImageFix" result="shape"/>
<feColorMatrix in="SourceAlpha" type="matrix" values="0 0 0 0 0 0 0 0 0 0 0 0 0 0 0 0 0 0 127 0" result="hardAlpha"/>
<feOffset dy="4"/>
<feGaussianBlur stdDeviation="2"/>
<feComposite in2="hardAlpha" operator="arithmetic" k2="-1" k3="1"/>
<feColorMatrix type="matrix" values="0 0 0 0 0 0 0 0 0 0 0 0 0 0 0 0 0 0 0.25 0"/>
<feBlend mode="normal" in2="shape" result="effect1_innerShadow_12691_2362"/>
</filter>
</defs>
</svg>
