<svg width="24" height="24" viewBox="0 0 24 24" fill="none" xmlns="http://www.w3.org/2000/svg">
<g clip-path="url(#clip0_12558_4255)">
<path d="M10.499 20.499L20.499 10.499C20.9663 10.0411 21.3382 9.49508 21.5931 8.89255C21.848 8.29001 21.981 7.64291 21.9843 6.98867C21.9876 6.33443 21.8612 5.68602 21.6124 5.08094C21.3635 4.47586 20.9972 3.92612 20.5346 3.46349C20.0719 3.00087 19.5222 2.63454 18.9171 2.3857C18.312 2.13686 17.6636 2.01043 17.0094 2.01374C16.3551 2.01704 15.708 2.15001 15.1055 2.40495C14.503 2.65989 13.957 3.03175 13.499 3.49903L3.49903 13.499C3.03175 13.957 2.65989 14.503 2.40495 15.1055C2.15001 15.708 2.01704 16.3551 2.01374 17.0094C2.01043 17.6636 2.13686 18.312 2.3857 18.9171C2.63454 19.5222 3.00087 20.0719 3.46349 20.5346C3.92612 20.9972 4.47586 21.3635 5.08094 21.6124C5.68602 21.8612 6.33443 21.9876 6.98867 21.9843C7.64291 21.981 8.29001 21.848 8.89255 21.5931C9.49508 21.3382 10.0411 20.9663 10.499 20.499Z" stroke="#00C414" stroke-width="2.75" stroke-linecap="round" stroke-linejoin="round"/>
<path d="M8.5 8.5L15.5 15.5" stroke="#00C414" stroke-width="2.75" stroke-linecap="round" stroke-linejoin="round"/>
</g>
<defs>
<clipPath id="clip0_12558_4255">
<rect width="24" height="24" fill="white"/>
</clipPath>
</defs>
</svg>
